<?xml version="1.0" encoding="UTF-8" ?>
<!DOCTYPE svg PUBLIC "-//W3C//DTD SVG 1.1//EN" "http://www.w3.org/Graphics/SVG/1.1/DTD/svg11.dtd">
<svg width="314pt" height="190pt" viewBox="0 0 314 190" version="1.1" xmlns="http://www.w3.org/2000/svg">
<g id="#fdfdfdff">
</g>
<g id="#b3484cff">
<path fill="#b3484c" opacity="1.00" d=" M 140.17 6.20 C 142.44 4.99 145.05 4.17 147.64 4.54 C 149.43 4.66 150.26 6.51 151.31 7.70 C 147.75 8.44 143.89 9.23 140.41 7.70 C 140.35 7.32 140.23 6.57 140.17 6.20 Z" />
</g>
<g id="#bd3b2fff">
<path fill="#bd3b2f" opacity="1.00" d=" M 162.01 8.26 C 164.43 7.66 166.86 6.84 169.36 7.67 C 172.09 7.96 173.98 10.03 175.87 11.79 C 172.66 12.88 168.93 13.57 167.09 16.76 C 169.49 19.08 171.75 21.88 175.08 22.86 C 180.44 24.59 186.07 25.27 191.46 26.86 C 195.20 27.90 198.25 30.73 200.05 34.11 C 200.75 35.44 201.17 37.07 200.52 38.50 C 198.69 43.01 195.28 46.64 193.22 51.03 C 192.46 52.41 192.99 53.99 193.28 55.42 C 193.98 57.97 194.63 60.63 196.15 62.83 C 197.71 64.58 199.88 66.00 202.23 66.29 C 204.76 65.94 207.06 64.44 209.64 64.49 C 215.48 66.74 216.88 74.24 214.66 79.55 C 212.19 81.64 208.10 81.55 205.92 79.08 C 204.00 76.42 203.41 73.05 201.50 70.39 C 199.25 68.17 196.21 67.05 193.45 65.61 C 190.88 67.95 188.25 70.22 185.63 72.50 C 185.55 80.36 184.44 88.17 184.21 96.03 C 184.08 101.17 180.10 106.21 174.86 106.78 C 171.83 107.07 168.34 107.16 165.88 105.07 C 162.99 102.67 160.70 99.62 157.60 97.46 C 153.66 94.63 149.73 91.79 145.94 88.75 C 141.80 89.97 137.53 90.67 133.24 91.08 C 133.00 91.52 132.52 92.41 132.28 92.85 C 131.15 95.18 129.53 97.49 129.52 100.17 C 129.95 104.22 132.20 107.87 132.39 111.96 C 132.25 115.96 128.88 119.63 124.80 119.74 C 120.92 120.20 117.58 117.71 114.98 115.13 C 112.99 111.11 113.47 105.85 116.38 102.40 C 118.85 100.35 122.23 100.01 125.22 99.15 C 126.64 95.91 127.80 92.57 128.68 89.15 C 126.23 86.34 124.25 83.15 121.67 80.46 C 120.73 79.41 119.25 79.27 117.97 78.98 C 112.35 77.95 106.64 77.40 100.92 77.70 C 97.63 78.01 94.39 76.15 92.76 73.33 C 91.97 70.80 92.12 68.04 92.61 65.47 C 93.18 62.54 95.70 60.66 97.63 58.60 C 100.71 55.62 102.65 51.73 105.55 48.60 C 106.58 47.32 107.87 46.18 108.50 44.63 C 108.99 41.49 108.68 38.29 108.66 35.12 C 105.83 35.22 102.85 35.05 100.25 36.37 C 97.37 37.79 94.30 38.76 91.10 39.04 C 91.28 37.24 91.35 35.42 91.81 33.66 C 93.99 29.38 98.66 27.10 103.35 27.09 C 103.76 28.99 104.16 30.90 104.55 32.80 C 110.56 33.39 115.86 29.92 120.26 26.25 C 122.98 22.68 122.92 17.84 124.98 13.95 C 127.09 11.25 130.74 10.34 134.02 10.20 C 140.07 9.99 145.56 12.89 151.03 15.05 C 155.21 16.82 159.84 16.22 164.25 16.31 C 164.85 13.36 163.54 10.67 162.01 8.26 M 134.62 19.49 C 131.51 20.17 128.33 20.26 125.17 20.50 C 124.83 22.47 124.47 24.44 124.09 26.41 C 127.98 27.45 132.01 29.16 136.10 28.14 C 139.67 27.31 143.40 26.52 146.57 24.59 C 148.23 22.31 148.86 19.47 149.86 16.86 C 147.96 16.12 146.07 15.30 144.07 14.87 C 140.79 16.15 138.10 18.70 134.62 19.49 M 170.25 30.90 C 172.96 34.78 174.98 39.22 178.40 42.55 C 181.95 45.20 186.27 46.51 190.11 48.66 C 191.60 46.68 193.26 44.71 193.93 42.26 C 191.57 40.18 188.82 38.58 186.44 36.53 C 183.71 34.19 183.38 30.38 182.58 27.11 C 179.90 26.49 177.10 25.06 174.33 25.92 C 172.79 27.43 171.53 29.18 170.25 30.90 M 135.44 31.46 C 134.83 34.42 134.57 37.54 133.15 40.27 C 131.46 42.81 128.72 44.39 126.76 46.70 C 126.53 51.66 129.74 55.99 131.91 60.23 C 136.00 60.23 140.22 59.77 144.21 60.94 C 147.83 62.29 150.00 65.73 152.31 68.62 C 157.63 67.23 162.73 65.12 167.63 62.65 C 167.22 58.94 166.20 55.08 167.33 51.41 C 168.78 48.33 171.86 46.50 173.84 43.81 C 173.07 39.77 170.95 35.71 167.54 33.32 C 163.58 32.13 159.29 32.89 155.37 31.51 C 152.70 30.45 150.50 28.50 147.80 27.49 C 143.39 27.52 139.40 29.76 135.44 31.46 M 110.52 47.70 C 107.41 49.26 105.85 52.58 104.02 55.36 C 106.45 56.72 109.49 57.50 111.19 59.82 C 113.21 64.49 110.92 69.47 109.39 73.93 C 113.39 74.54 117.44 74.79 121.48 74.74 C 122.67 71.37 124.25 68.15 126.13 65.12 C 126.71 63.92 127.79 62.69 127.37 61.26 C 126.22 56.89 123.99 52.91 122.38 48.70 C 118.45 48.29 114.48 47.14 110.52 47.70 M 156.94 71.74 C 155.63 72.39 153.99 72.92 153.47 74.45 C 151.89 78.12 151.03 82.03 149.78 85.81 C 152.68 88.67 155.94 91.15 159.52 93.10 C 161.68 89.33 163.49 84.66 167.80 82.87 C 172.41 80.94 177.28 83.00 181.56 84.79 C 181.92 80.98 182.79 77.08 181.98 73.27 C 178.25 70.47 173.88 68.70 169.96 66.19 C 165.67 68.15 161.28 69.89 156.94 71.74 Z" />
</g>
<g id="#a94441ff">
<path fill="#a94441" opacity="1.00" d=" M 111.69 14.59 C 113.95 13.28 116.68 13.40 119.20 13.11 C 118.72 14.32 118.19 15.52 117.60 16.69 C 115.06 19.18 111.25 19.69 108.02 18.32 C 109.17 17.02 110.31 15.67 111.69 14.59 Z" />
</g>
<g id="#fdfaf9ff">
</g>
<g id="#b53e36ff">
<path fill="#b53e36" opacity="1.00" d=" M 185.79 17.12 C 188.71 17.55 192.00 17.63 194.35 19.65 C 195.48 20.92 196.26 22.44 197.11 23.90 C 194.30 23.71 191.22 23.87 188.81 22.16 C 186.97 21.11 186.68 18.85 185.79 17.12 Z" />
</g>
<g id="#fbf8f7ff">
</g>
<g id="#fcfaf9ff">
</g>
<g id="#be3b30ff">
<path fill="#be3b30" opacity="1.00" d=" M 147.50 37.57 C 151.99 36.36 157.27 38.44 159.29 42.72 C 160.61 46.08 158.87 49.96 156.02 51.94 C 151.35 55.27 144.15 53.32 141.20 48.61 C 138.93 43.95 142.82 38.57 147.50 37.57 Z" />
</g>
<g id="#b73d36ff">
<path fill="#b73d36" opacity="1.00" d=" M 206.03 46.84 C 205.42 44.97 207.09 43.53 207.91 42.05 C 211.42 43.95 214.06 46.94 215.47 50.68 C 215.04 51.46 214.17 53.01 213.74 53.78 C 212.18 53.17 210.49 52.86 209.01 52.05 C 207.44 50.74 206.49 48.80 206.03 46.84 Z" />
</g>
<g id="#fcfaf8ff">
</g>
<g id="#b73d2eff">
<path fill="#b73d2e" opacity="1.00" d=" M 86.58 50.60 C 88.23 50.36 89.90 50.34 91.56 50.26 C 91.49 53.23 92.34 56.73 90.16 59.18 C 88.57 61.56 85.50 61.58 82.98 62.06 C 81.82 57.94 82.60 52.89 86.58 50.60 Z" />
</g>
<g id="#fafaf9ff">
</g>
<g id="#ba3b33ff">
<path fill="#ba3b33" opacity="1.00" d=" M 95.54 85.56 C 98.12 84.82 101.18 86.15 102.36 88.56 C 103.11 90.84 103.12 93.34 102.65 95.68 C 102.05 98.26 99.43 99.90 96.95 100.30 C 93.74 100.45 91.03 97.62 90.54 94.58 C 89.75 90.90 91.89 86.71 95.54 85.56 Z" />
</g>
<g id="#bc3b31ff">
<path fill="#bc3b31" opacity="1.00" d=" M 196.37 92.04 C 198.23 91.34 200.44 91.68 202.00 92.92 C 204.87 96.59 204.81 102.91 200.73 105.71 C 198.07 107.48 193.60 107.11 192.02 104.05 C 190.17 99.76 191.27 93.43 196.37 92.04 Z" />
</g>
<g id="#e7e8e9ff">
<path fill="#e7e8e9" opacity="1.00" d=" M 132.28 92.85 C 132.23 95.58 131.46 98.21 130.45 100.73 C 131.71 102.38 133.75 103.77 133.78 106.04 C 134.10 110.21 134.03 114.40 134.43 118.56 C 139.21 118.60 144.46 118.88 148.23 115.37 L 148.22 116.01 C 148.21 118.26 148.22 120.66 149.36 122.68 C 151.51 126.17 156.64 127.60 160.09 125.16 C 163.04 123.46 163.68 119.83 163.95 116.72 C 167.20 117.74 170.60 118.22 174.01 118.04 C 182.24 117.70 190.48 117.95 198.71 118.23 C 206.32 118.23 214.23 116.73 221.52 119.71 C 222.09 119.02 222.68 118.34 223.25 117.64 C 224.77 119.28 226.45 121.11 228.89 121.03 C 234.25 121.45 239.86 121.28 244.65 124.14 C 242.79 125.16 240.94 126.37 238.80 126.68 C 229.57 128.03 220.15 127.42 210.97 129.11 C 207.32 129.70 203.63 129.16 199.97 129.29 C 189.32 130.02 178.65 129.10 167.99 129.48 C 160.90 129.84 153.80 129.12 146.70 129.32 C 132.63 129.05 118.61 127.78 104.56 127.09 C 102.30 127.04 100.30 125.89 98.34 124.90 C 99.88 123.82 101.17 122.02 103.22 121.97 C 108.03 121.65 112.92 121.66 117.58 120.24 C 116.72 118.53 115.85 116.83 114.98 115.13 C 117.58 117.71 120.92 120.20 124.80 119.74 C 128.88 119.63 132.25 115.96 132.39 111.96 C 132.20 107.87 129.95 104.22 129.52 100.17 C 129.53 97.49 131.15 95.18 132.28 92.85 Z" />
</g>
<g id="#bc3c31ff">
<path fill="#bc3c31" opacity="1.00" d=" M 148.22 116.01 C 149.49 112.86 152.86 111.03 156.11 110.71 C 159.77 110.36 163.07 113.30 163.95 116.72 C 163.68 119.83 163.04 123.46 160.09 125.16 C 156.64 127.60 151.51 126.17 149.36 122.68 C 148.22 120.66 148.21 118.26 148.22 116.01 Z" />
</g>
<g id="#2a2430ff">
<path fill="#2a2430" opacity="1.00" d=" M 11.75 144.01 C 11.88 139.08 10.79 133.65 13.88 129.37 C 14.72 132.15 15.34 135.02 15.31 137.94 C 15.22 150.85 15.19 163.77 15.27 176.68 C 23.41 176.83 31.57 176.36 39.71 177.01 C 39.71 177.77 39.70 179.29 39.69 180.04 C 30.54 180.65 21.34 180.61 12.19 180.08 C 11.30 168.08 12.03 156.03 11.75 144.01 Z" />
</g>
<g id="#2a2633ff">
<path fill="#2a2633" opacity="1.00" d=" M 79.76 130.84 C 81.91 130.29 84.15 130.45 86.34 130.40 C 86.48 131.44 86.62 132.47 86.76 133.52 C 83.62 134.21 79.98 134.19 77.45 136.44 C 74.74 139.04 75.43 143.13 75.11 146.52 C 78.64 146.63 82.17 146.77 85.69 147.05 C 85.69 147.78 85.69 149.23 85.69 149.96 C 82.23 150.25 78.75 150.41 75.28 150.49 C 75.21 157.67 75.20 164.84 75.34 172.02 C 75.44 175.11 74.96 178.19 74.05 181.15 C 73.66 180.53 72.88 179.28 72.49 178.66 C 71.70 169.33 72.91 159.91 71.92 150.57 C 68.50 150.57 65.09 150.14 61.84 149.03 C 62.46 148.55 63.69 147.59 64.31 147.11 C 66.68 146.56 69.13 146.58 71.55 146.45 C 71.98 143.34 72.25 140.18 73.24 137.19 C 74.24 134.19 76.82 131.87 79.76 130.84 Z" />
</g>
<g id="#35323dff">
<path fill="#35323d" opacity="1.00" d=" M 279.73 130.73 C 280.47 130.81 281.96 130.96 282.70 131.04 C 282.88 140.71 282.32 150.39 282.98 160.05 C 289.14 156.68 294.77 152.47 300.58 148.56 C 302.94 146.93 305.60 145.81 308.34 144.99 C 307.76 146.44 307.58 148.24 306.15 149.15 C 301.87 152.30 297.15 154.82 292.94 158.08 C 296.60 163.35 300.69 168.30 304.62 173.37 C 306.24 175.54 308.47 177.86 307.45 180.80 C 300.13 175.16 296.45 166.17 289.13 160.51 C 287.16 161.76 285.07 162.88 283.39 164.52 C 281.96 169.49 282.88 174.79 282.75 179.89 C 282.00 179.91 280.50 179.94 279.75 179.96 C 279.25 171.98 279.57 163.99 279.50 156.01 C 279.57 147.58 279.24 139.15 279.73 130.73 Z" />
</g>
<g id="#292732ff">
<path fill="#292732" opacity="1.00" d=" M 177.86 133.19 C 178.55 133.19 179.94 133.20 180.63 133.21 C 180.58 137.53 180.63 141.85 180.79 146.17 C 183.64 146.39 186.49 146.57 189.34 146.73 C 189.50 147.79 189.67 148.85 189.84 149.91 C 186.87 150.19 183.90 150.39 180.92 150.55 C 180.55 156.38 180.45 162.23 180.60 168.07 C 180.57 170.88 181.55 173.53 182.49 176.14 C 185.83 176.60 189.15 177.24 192.40 178.16 C 190.43 179.25 188.44 180.89 186.03 180.44 C 181.35 180.08 177.72 175.66 177.71 171.06 C 177.39 164.30 177.87 157.53 177.62 150.77 C 174.93 150.54 172.29 149.85 170.18 148.08 C 172.62 147.36 175.09 146.77 177.58 146.24 C 177.64 141.88 177.71 137.53 177.86 133.19 Z" />
</g>
<g id="#2c2933ff">
<path fill="#2c2933" opacity="1.00" d=" M 50.20 137.22 C 50.84 137.22 52.12 137.21 52.75 137.21 C 52.75 137.84 52.74 139.11 52.74 139.74 C 52.11 139.75 50.83 139.76 50.20 139.76 C 50.20 139.12 50.20 137.85 50.20 137.22 Z" />
<path fill="#2c2933" opacity="1.00" d=" M 242.29 155.25 C 246.28 146.92 257.44 142.94 265.67 147.39 C 268.18 148.21 269.30 150.60 270.26 152.85 C 265.59 151.40 261.11 148.63 256.04 149.20 C 248.78 149.59 242.90 156.82 243.64 164.00 C 243.91 171.61 251.53 177.57 258.94 176.76 C 262.90 176.26 266.40 174.15 270.17 172.98 C 269.50 174.59 269.16 176.61 267.47 177.48 C 263.05 180.14 257.49 181.33 252.53 179.56 C 242.73 176.81 237.44 164.18 242.29 155.25 Z" />
</g>
<g id="#89888fff">
<path fill="#89888f" opacity="1.00" d=" M 49.22 152.94 C 49.10 150.12 49.19 147.05 51.07 144.77 C 50.45 151.50 50.69 158.26 50.53 165.00 C 50.41 169.89 50.64 174.78 51.38 179.61 C 52.28 175.13 52.73 170.56 52.49 165.99 C 52.22 159.23 52.87 152.42 51.72 145.72 C 54.12 146.87 53.68 149.74 53.74 151.93 C 53.45 161.27 53.74 170.61 53.60 179.95 C 52.19 179.97 50.79 179.98 49.38 180.00 C 49.19 170.98 49.52 161.96 49.22 152.94 Z" />
</g>
<g id="#25242aff">
<path fill="#25242a" opacity="1.00" d=" M 51.07 144.77 L 51.72 145.72 C 52.87 152.42 52.22 159.23 52.49 165.99 C 52.73 170.56 52.28 175.13 51.38 179.61 C 50.64 174.78 50.41 169.89 50.53 165.00 C 50.69 158.26 50.45 151.50 51.07 144.77 Z" />
</g>
<g id="#2b2736ff">
<path fill="#2b2736" opacity="1.00" d=" M 96.73 153.73 C 100.87 147.14 109.82 143.76 117.17 146.62 C 122.13 148.26 125.70 152.55 127.76 157.19 C 129.06 160.13 128.71 163.41 128.72 166.53 C 118.39 166.98 108.03 166.19 97.71 166.95 C 99.27 170.31 101.37 173.64 104.88 175.22 C 110.00 178.24 115.89 175.50 121.38 175.69 C 120.60 176.77 119.87 177.91 118.94 178.87 C 111.96 182.15 102.68 180.19 98.19 173.72 C 93.46 168.29 92.78 159.77 96.73 153.73 M 101.45 153.44 C 98.86 155.85 98.23 159.44 97.52 162.73 C 106.86 162.98 116.20 162.95 125.54 162.73 C 124.84 159.41 124.22 155.80 121.61 153.37 C 116.54 147.68 106.44 147.61 101.45 153.44 Z" />
</g>
<g id="#2b2833ff">
<path fill="#2b2833" opacity="1.00" d=" M 145.64 146.38 C 151.17 144.36 157.58 146.28 161.72 150.29 C 163.40 151.75 163.44 154.11 163.90 156.13 C 160.42 154.46 157.80 151.48 154.39 149.73 C 149.61 148.35 143.64 149.44 140.62 153.66 C 140.07 155.10 139.56 156.54 139.13 158.02 C 145.86 161.03 153.33 161.50 160.25 163.87 C 164.15 165.00 164.50 169.97 163.11 173.14 C 161.30 176.82 157.27 178.72 153.51 179.80 C 148.22 181.37 142.17 179.56 138.41 175.57 C 136.90 174.07 136.63 171.86 136.08 169.90 C 139.41 171.50 142.17 174.02 145.38 175.83 C 150.12 177.79 156.20 176.33 159.31 172.16 C 160.18 171.05 160.62 169.62 160.34 168.22 C 158.99 166.42 156.60 166.18 154.58 165.68 C 149.03 164.48 142.98 164.23 138.13 160.97 C 135.77 159.67 136.01 156.66 136.43 154.40 C 137.51 150.12 141.70 147.62 145.64 146.38 Z" />
</g>
<g id="#2a2732ff">
<path fill="#2a2732" opacity="1.00" d=" M 205.12 148.21 C 208.87 145.69 213.66 145.02 218.07 145.71 C 222.79 146.52 226.59 149.88 229.35 153.62 C 231.57 156.58 232.07 160.37 232.30 163.95 C 232.59 169.24 232.38 174.54 232.10 179.82 C 231.41 179.82 230.04 179.81 229.35 179.81 C 229.19 177.94 229.02 176.08 228.85 174.21 C 224.66 177.04 220.29 180.31 215.02 180.44 C 205.59 181.06 197.17 172.21 197.34 162.96 C 197.17 157.12 200.42 151.53 205.12 148.21 M 210.52 149.65 C 204.45 151.41 200.02 157.66 200.50 163.98 C 200.81 171.26 207.84 177.19 215.01 176.84 C 222.72 177.23 229.89 169.76 228.89 162.02 C 228.94 153.06 218.63 147.14 210.52 149.65 Z" />
</g>
<g id="#fefcfeff">
</g>
<g id="#fdfcfcff">
</g>
</svg>
